# OBJ-File exported by GLScene

# Mesh 1
v -2.49000000953674 -2.8296000957489 0.334800004959106
v -1.83990001678467 -3.30189990997314 0.334798991680145
v -1.03620004653931 -3.30189990997314 0.334798991680145
v -0.386000007390976 -2.8296000957489 0.334800004959106
v -0.137700006365776 -2.06520009040833 0.334800004959106
v -0.386000007390976 -1.30089998245239 0.334800004959106
v -1.03620004653931 -0.828499972820282 0.334800004959106
v -1.83990001678467 -0.828499972820282 0.334800004959106
v -2.49000000953674 -1.30089998245239 0.334800004959106
v -2.73839998245239 -2.06520009040833 0.334800004959106
v -2.23489999771118 -0.370900005102158 0.389499992132187
v -1.58469998836517 -0.843299984931946 0.389499992132187
v -0.781000018119812 -0.843299984931946 0.389499992132187
v -0.130899995565414 -0.370900005102158 0.389499992132187
v 0.117499999701977 0.393400013446808 0.389499992132187
v -0.130899995565414 1.15779995918274 0.389499992132187
v -0.781000018119812 1.63020002841949 0.389499992132187
v -1.58469998836517 1.63020002841949 0.389499992132187
v -2.23489999771118 1.15779995918274 0.389499992132187
v -2.48320007324219 0.393400013446808 0.389499992132187
v -0.31580001115799 -1.20340001583099 1.07509994506836
v 0.485199987888336 -1.16240000724792 1.02419996261597
v 1.10370004177094 -0.666599988937378 0.892400026321411
v 1.30359995365143 0.094700001180172 0.730199992656708
v 1.00849997997284 0.830699980258942 0.599399983882904
v 0.331000000238419 1.26020002365112 0.550000011920929
v -0.469999998807907 1.21920001506805 0.600899994373322
v -1.08860003948212 0.723399996757507 0.732699990272522
v -1.28849995136261 -0.0379000008106232 0.894999980926514
v -0.993300020694733 -0.773899972438812 1.02579998970032
v 0.247899994254112 -1.79540002346039 0.74779999256134
v 0.893499970436096 -2.26780009269714 0.671000003814697
v 1.69149994850159 -2.26780009269714 0.576099991798401
v 2.33719992637634 -1.79540002346039 0.499399989843369
v 2.58380007743835 -1.03110003471375 0.469999998807907
v 2.33719992637634 -0.266699999570847 0.499399989843369
v 1.69149994850159 0.205699995160103 0.576099991798401
v 0.893499970436096 0.205699995160103 0.671000003814697
v 0.247899994254112 -0.266699999570847 0.74779999256134
v 0.00120000005699694 -1.03110003471375 0.777100026607513
v -0.747099995613098 -2.65520000457764 0.620500028133392
v -0.101099997758865 -3.1275999546051 0.546799004077911
v 0.697399973869324 -3.1275999546051 0.455799013376236
v 1.34340000152588 -2.65520000457764 0.382200002670288
v 1.59010004997253 -1.89079999923706 0.354000002145767
v 1.34340000152588 -1.12650001049042 0.382200002670288
v 0.697399973869324 -0.654100000858307 0.455799996852875
v -0.101099997758865 -0.654100000858307 0.546800017356873
v -0.747099995613098 -1.12650001049042 0.620500028133392
v -0.993900001049042 -1.89079999923706 0.648599982261658
v -1.03620004653931 -0.828499972820282 0.0904999971389771
v -0.386000007390976 -1.30089998245239 0.0904999971389771
v -0.137700006365776 -2.06520009040833 0.0904999971389771
v -0.386000007390976 -2.8296000957489 0.0904999971389771
v -1.03620004653931 -3.30189990997314 0.0904989987611771
v -1.83990001678467 -3.30189990997314 0.0904989987611771
v -2.49000000953674 -2.8296000957489 0.0904999971389771
v -2.73839998245239 -2.06520009040833 0.0904999971389771
v -2.49000000953674 -1.30089998245239 0.0904999971389771
v -1.83990001678467 -0.828499972820282 0.0904999971389771
v -0.781000018119812 1.63020002841949 0.145300000905991
v -0.130899995565414 1.15779995918274 0.145300000905991
v 0.117499999701977 0.393400013446808 0.145300000905991
v -0.130899995565414 -0.370900005102158 0.145300000905991
v -0.781000018119812 -0.843299984931946 0.145300000905991
v -1.58469998836517 -0.843299984931946 0.145300000905991
v -2.23489999771118 -0.370900005102158 0.145300000905991
v -2.48320007324219 0.393400013446808 0.145300000905991
v -2.23489999771118 1.15779995918274 0.145300000905991
v -1.58469998836517 1.63020002841949 0.145300000905991
v -0.482800006866455 1.17159998416901 0.361699998378754
v 0.318199992179871 1.21259999275208 0.310799986124039
v 0.995700001716614 0.783100008964539 0.360100001096725
v 1.29089999198914 0.0471000000834465 0.490900009870529
v 1.09099996089935 -0.714200019836426 0.653199970722198
v 0.472400009632111 -1.21010005474091 0.785000026226044
v -0.328599989414215 -1.25109994411469 0.835900008678436
v -1.0061000585556 -0.82150000333786 0.786499977111816
v -1.30120003223419 -0.0856000036001205 0.655700027942657
v -1.10140001773834 0.675700008869171 0.493499994277954
v 1.66270005702972 0.205699995160103 0.333600014448166
v 2.30830001831055 -0.266699999570847 0.2567999958992
v 2.55489993095398 -1.03110003471375 0.227500006556511
v 2.30830001831055 -1.79540002346039 0.2567999958992
v 1.66270005702972 -2.26780009269714 0.333600014448166
v 0.864700019359589 -2.26780009269714 0.42849999666214
v 0.218999996781349 -1.79540002346039 0.505200028419495
v -0.0275999996811152 -1.03110003471375 0.534600019454956
v 0.218999996781349 -0.266699999570847 0.505200028419495
v 0.864700019359589 0.205699995160103 0.42849999666214
v 0.669700026512146 -0.654100000858307 0.213100001215935
v 1.3157000541687 -1.12650001049042 0.139500007033348
v 1.5625 -1.89079999923706 0.111299999058247
v 1.3157000541687 -2.65520000457764 0.139500007033348
v 0.669700026512146 -3.1275999546051 0.213099002838135
v -0.128800004720688 -3.1275999546051 0.30409899353981
v -0.774800002574921 -2.65520000457764 0.377799987792969
v -1.02149999141693 -1.89079999923706 0.405900001525879
v -0.774800002574921 -1.12650001049042 0.377799987792969
v -0.128800004720688 -0.654100000858307 0.304100006818771
v -0.386000007390976 -1.30089998245239 0.334800004959106
v -0.137700006365776 -2.06520009040833 0.334800004959106
v -0.137700006365776 -2.06520009040833 0.0904999971389771
v -0.386000007390976 -1.30089998245239 0.0904999971389771
v -1.03620004653931 -0.828499972820282 0.334800004959106
v -1.03620004653931 -0.828499972820282 0.0904999971389771
v -1.83990001678467 -0.828499972820282 0.334800004959106
v -1.83990001678467 -0.828499972820282 0.0904999971389771
v -2.49000000953674 -1.30089998245239 0.334800004959106
v -2.49000000953674 -1.30089998245239 0.0904999971389771
v -2.73839998245239 -2.06520009040833 0.334800004959106
v -2.73839998245239 -2.06520009040833 0.0904999971389771
v -2.49000000953674 -2.8296000957489 0.334800004959106
v -2.49000000953674 -2.8296000957489 0.0904999971389771
v -1.83990001678467 -3.30189990997314 0.334798991680145
v -1.83990001678467 -3.30189990997314 0.0904989987611771
v -1.03620004653931 -3.30189990997314 0.334798991680145
v -1.03620004653931 -3.30189990997314 0.0904989987611771
v -0.386000007390976 -2.8296000957489 0.334800004959106
v -0.386000007390976 -2.8296000957489 0.0904999971389771
v -0.130899995565414 1.15779995918274 0.389499992132187
v 0.117499999701977 0.393400013446808 0.389499992132187
v 0.117499999701977 0.393400013446808 0.145300000905991
v -0.130899995565414 1.15779995918274 0.145300000905991
v -0.781000018119812 1.63020002841949 0.389499992132187
v -0.781000018119812 1.63020002841949 0.145300000905991
v -1.58469998836517 1.63020002841949 0.389499992132187
v -1.58469998836517 1.63020002841949 0.145300000905991
v -2.23489999771118 1.15779995918274 0.389499992132187
v -2.23489999771118 1.15779995918274 0.145300000905991
v -2.48320007324219 0.393400013446808 0.389499992132187
v -2.48320007324219 0.393400013446808 0.145300000905991
v -2.23489999771118 -0.370900005102158 0.389499992132187
v -2.23489999771118 -0.370900005102158 0.145300000905991
v -1.58469998836517 -0.843299984931946 0.389499992132187
v -1.58469998836517 -0.843299984931946 0.145300000905991
v -0.781000018119812 -0.843299984931946 0.389499992132187
v -0.781000018119812 -0.843299984931946 0.145300000905991
v -0.130899995565414 -0.370900005102158 0.389499992132187
v -0.130899995565414 -0.370900005102158 0.145300000905991
v 0.331000000238419 1.26020002365112 0.550000011920929
v 1.00849997997284 0.830699980258942 0.599399983882904
v 0.995700001716614 0.783100008964539 0.360100001096725
v 0.318199992179871 1.21259999275208 0.310799986124039
v -0.469999998807907 1.21920001506805 0.600899994373322
v -0.482800006866455 1.17159998416901 0.361699998378754
v -1.08860003948212 0.723399996757507 0.732699990272522
v -1.10140001773834 0.675700008869171 0.493499994277954
v -1.28849995136261 -0.0379000008106232 0.894999980926514
v -1.30120003223419 -0.0856000036001205 0.655700027942657
v -0.993300020694733 -0.773899972438812 1.02579998970032
v -1.0061000585556 -0.82150000333786 0.786499977111816
v -0.31580001115799 -1.20340001583099 1.07509994506836
v -0.328599989414215 -1.25109994411469 0.835900008678436
v 0.485199987888336 -1.16240000724792 1.02419996261597
v 0.472400009632111 -1.21010005474091 0.785000026226044
v 1.10370004177094 -0.666599988937378 0.892400026321411
v 1.09099996089935 -0.714200019836426 0.653199970722198
v 1.30359995365143 0.094700001180172 0.730199992656708
v 1.29089999198914 0.0471000000834465 0.490900009870529
v 2.33719992637634 -0.266699999570847 0.499399989843369
v 2.58380007743835 -1.03110003471375 0.469999998807907
v 2.55489993095398 -1.03110003471375 0.227500006556511
v 2.30830001831055 -0.266699999570847 0.2567999958992
v 1.69149994850159 0.205699995160103 0.576099991798401
v 1.66270005702972 0.205699995160103 0.333600014448166
v 0.893499970436096 0.205699995160103 0.671000003814697
v 0.864700019359589 0.205699995160103 0.42849999666214
v 0.247899994254112 -0.266699999570847 0.74779999256134
v 0.218999996781349 -0.266699999570847 0.505200028419495
v 0.00120000005699694 -1.03110003471375 0.777100026607513
v -0.0275999996811152 -1.03110003471375 0.534600019454956
v 0.247899994254112 -1.79540002346039 0.74779999256134
v 0.218999996781349 -1.79540002346039 0.505200028419495
v 0.893499970436096 -2.26780009269714 0.671000003814697
v 0.864700019359589 -2.26780009269714 0.42849999666214
v 1.69149994850159 -2.26780009269714 0.576099991798401
v 1.66270005702972 -2.26780009269714 0.333600014448166
v 2.33719992637634 -1.79540002346039 0.499399989843369
v 2.30830001831055 -1.79540002346039 0.2567999958992
v 1.34340000152588 -1.12650001049042 0.382200002670288
v 1.59010004997253 -1.89079999923706 0.354000002145767
v 1.5625 -1.89079999923706 0.111299999058247
v 1.3157000541687 -1.12650001049042 0.139500007033348
v 0.697399973869324 -0.654100000858307 0.455799996852875
v 0.669700026512146 -0.654100000858307 0.213100001215935
v -0.101099997758865 -0.654100000858307 0.546800017356873
v -0.128800004720688 -0.654100000858307 0.304100006818771
v -0.747099995613098 -1.12650001049042 0.620500028133392
v -0.774800002574921 -1.12650001049042 0.377799987792969
v -0.993900001049042 -1.89079999923706 0.648599982261658
v -1.02149999141693 -1.89079999923706 0.405900001525879
v -0.747099995613098 -2.65520000457764 0.620500028133392
v -0.774800002574921 -2.65520000457764 0.377799987792969
v -0.101099997758865 -3.1275999546051 0.546799004077911
v -0.128800004720688 -3.1275999546051 0.30409899353981
v 0.697399973869324 -3.1275999546051 0.455799013376236
v 0.669700026512146 -3.1275999546051 0.213099002838135
v 1.34340000152588 -2.65520000457764 0.382200002670288
v 1.3157000541687 -2.65520000457764 0.139500007033348
# 200 Vertices

# Mesh 1
vn 0 0 1
vn 0.00100000004749745 -0.000300000014249235 1
vn 0.000199999994947575 -0.000300000014249235 1
vn 0 9.99999974737875E-005 1
vn 0 -9.99999974737875E-005 1
vn -9.99999974737875E-005 0 1
vn 9.99999974737875E-005 0 1
vn 9.99999974737875E-005 0.000199999994947575 1
vn -0.000500000023748726 -9.99999974737875E-005 1
vn -0.000199999994947575 -0.000300000014249235 1
vn 0.000300000014249235 -0.00039999998989515 1
vn -9.99999974737875E-005 9.99999974737875E-005 1
vn 0.000199999994947575 -0.000199999994947575 1
vn -9.99999974737875E-005 -9.99999974737875E-005 1
vn 0 -0.000199999994947575 1
vn 9.99999974737875E-005 -0.000199999994947575 1
vn -0.000199999994947575 9.99999974737875E-005 1
vn 0.000199999994947575 0 1
vn -9.99999974737875E-005 -0.000199999994947575 1
vn 9.99999974737875E-005 -9.99999974737875E-005 1
vn 0 0.000199999994947575 1
vn 0.000199999994947575 -9.99999974737875E-005 1
vn 9.99999974737875E-005 9.99999974737875E-005 1
vn 0.000300000014249235 9.99999974737875E-005 1
vn -9.99999974737875E-005 0.000199999994947575 1
vn 0 0 0
vn 0 0 0
vn 0 0 0
vn 0 0 0
vn 0 0 0
vn 0 0 0
vn 0 0 0
vn 0 0 0
vn 0 0 0
vn 0 0 0
vn 0 0 0
vn 0 0 0
vn 0 0 0
vn 0 0 0
vn 0 0 0
vn 0 0 0
vn 0 0 0
vn 0 0 0
vn 0 0 0
vn 0 0 0
vn 0 0 0
vn 0 0 0
vn 0 0 0
vn 0 0 0
vn 0 0 0
vn 0 0 0
vn 0 0 0
vn 0 0 0
vn 0 0 0
vn 0 0 0
vn 0 0 0
vn 0 0 0
vn 0 0 0
vn 0 0 0
vn 0 0 0
vn 0 0 0
vn 0 0 0
vn 0 0 0
vn 0 0 0
vn 0 0 0
vn 0 0 0
vn 0 0 0
vn 0 0 0
vn 0 0 0
vn 0 0 0
vn 0 0 0
vn 0 0 0
vn 0 0 0
vn 0 0 0
vn 0 0 0
vn 0 0 0
vn 0 0 0
vn 0 0 0
vn 0 0 0
vn 0 0 0
vn 0 0 0
vn 0 0 0
vn 0 4.3986758795156E-042 7.32093809182472E-039
vn 7.32093809182472E-039 0 0
vn 0 0 0
vn 0 0 0
vn 0 0 0
vn 0 0 0
vn 0 0 0
vn 0 0 0
vn 0 0 0
vn 0 0 0
vn 0 0 0
vn 0 0 0
vn 0 0 0
vn 0 0 0
vn 0 0 0
vn 0 0 0
vn 0 0 0
vn 0 0 0
vn 0 0 0
vn 0 0 0
vn 0 0 0
vn 0 0 0
vn 0 0 0
vn 0 0 0
vn 0 0 0
vn 0 0 0
vn 0 0 0
vn 0 0 0
vn 0 0 0
vn 0 0 0
vn 0 0 0
vn 0 0 0
vn 0 0 0
vn 0 0 0
vn 0 0 0
vn 0 0 0
vn 0 0 0
vn 0 0 0
vn 0 0 0
vn 0 0 0
vn 0 0 0
vn 0 0 0
vn 0 0 0
vn 0 0 0
vn 0 0 0
vn 0 0 0
vn 0 0 0
vn 0 0 0
vn 0 0 0
vn 0 0 0
vn 0 0 0
vn 0 0 0
vn 0 0 0
vn 0 0 0
vn 0 0 0
vn 0 0 0
vn 0 0 0
vn 0 0 0
vn 0 0 0
vn 0 0 0
vn 0 0 0
vn 0 0 0
vn 0 0 0
vn 0 0 0
vn 0 0 0
vn 0 0 0
vn 0 0 0
vn 0 0 0
vn 0 0 0
vn 0 0 0
vn 0 0 0
vn 0 0 0
vn 0 0 0
vn 0 0 0
vn 0 0 0
vn 0 0 0
vn 0 0 0
vn 0 0 0
vn 0 0 0
vn 0 0 0
vn 0 0 0
vn 0 0 0
vn 0 0 0
vn 0 0 0
vn 0 0 0
vn 0 0 0
vn 0 0 0
vn 0 0 0
vn 0 0 0
vn 0 0 0
vn 0 0 0
vn 0 0 0
vn 0 0 0
vn 0 0 0
vn 0 0 0
vn 0 0 0
vn 0 0 0
vn 0 0 0
vn 0 0 0
vn 0 0 0
vn 0 0 0
vn 0 0 0
vn 0 0 0
vn 0 0 0
vn 0 0 0
vn 0 0 0
vn 0 0 0
vn 0 0 0
vn 0 0 0
vn 0 0 0
vn 0 0 0
vn 0 0 0
vn 0 0 0
vn 0 0 0
vn 0 0 0
vn 0 0 0
vn 0 0 0
vn 0 0 0
# 200 Normals

# Mesh 1
vt 0.701825976371765 0.368299961090088
vt 0.782018005847931 0.338163018226624
vt 0.881142020225525 0.338163018226624
vt 0.961335003376007 0.368299961090088
vt 0.991966009140015 0.417062044143677
vt 0.961335003376007 0.465824007987976
vt 0.881142020225525 0.495959997177124
vt 0.782018005847931 0.495959997177124
vt 0.701825976371765 0.465824007987976
vt 0.671194970607758 0.417062044143677
vt 0.369843989610672 0.368299961090088
vt 0.450037002563477 0.338163018226624
vt 0.549160003662109 0.338163018226624
vt 0.629352986812592 0.368299961090088
vt 0.659983992576599 0.417062044143677
vt 0.629352986812592 0.465824007987976
vt 0.549160003662109 0.495959997177124
vt 0.450037002563477 0.495959997177124
vt 0.369843989610672 0.465824007987976
vt 0.339213013648987 0.417062044143677
vt 0.0641589984297752 0.103080987930298
vt 0.144352003931999 0.0729449987411499
vt 0.243476003408432 0.0729449987411499
vt 0.323668003082275 0.103080987930298
vt 0.354299008846283 0.151843011379242
vt 0.323668003082275 0.200605034828186
vt 0.243476003408432 0.23074197769165
vt 0.144352003931999 0.23074197769165
vt 0.0641589984297752 0.200605034828186
vt 0.0335280001163483 0.151843011379242
vt 0.369843989610672 0.704888999462128
vt 0.450037002563477 0.674751996994019
vt 0.549160003662109 0.674751996994019
vt 0.629352986812592 0.704888999462128
vt 0.659983992576599 0.753651022911072
vt 0.629352986812592 0.802412986755371
vt 0.549160003662109 0.83254998922348
vt 0.450037002563477 0.83254998922348
vt 0.369843989610672 0.802412986755371
vt 0.339213013648987 0.753651022911072
vt 0.0430900007486343 0.649030029773712
vt 0.123282998800278 0.618893980979919
vt 0.222406998276711 0.618893980979919
vt 0.302599996328354 0.649030983448029
vt 0.3332299888134 0.697793006896973
vt 0.302599996328354 0.746554970741272
vt 0.222406998276711 0.776691019535065
vt 0.123282998800278 0.776691019535065
vt 0.0430900007486343 0.746554970741272
vt 0.0124599998816848 0.697793006896973
vt 0.881142020225525 0.66244900226593
vt 0.961335003376007 0.632313013076782
vt 0.991966009140015 0.583549976348877
vt 0.961335003376007 0.534788012504578
vt 0.881142020225525 0.50465202331543
vt 0.782018005847931 0.50465202331543
vt 0.701825976371765 0.534788012504578
vt 0.671194970607758 0.583549976348877
vt 0.701825976371765 0.632313013076782
vt 0.782018005847931 0.66244900226593
vt 0.549160003662109 0.66244900226593
vt 0.629352986812592 0.632313013076782
vt 0.659983992576599 0.583549976348877
vt 0.629352986812592 0.534788012504578
vt 0.549160003662109 0.50465202331543
vt 0.450037002563477 0.50465202331543
vt 0.369843989610672 0.534788012504578
vt 0.339213013648987 0.583549976348877
vt 0.369843989610672 0.632313013076782
vt 0.450037002563477 0.66244900226593
vt 0.549160003662109 0.322368979454041
vt 0.629352986812592 0.292232990264893
vt 0.659983992576599 0.243470013141632
vt 0.629352986812592 0.194707989692688
vt 0.549160003662109 0.16457200050354
vt 0.450037002563477 0.16457200050354
vt 0.369843989610672 0.194707989692688
vt 0.339213013648987 0.243470013141632
vt 0.369843989610672 0.292232990264893
vt 0.450037002563477 0.322368979454041
vt 0.833010971546173 0.927295982837677
vt 0.913203001022339 0.897158980369568
vt 0.943834006786346 0.848397016525269
vt 0.913203001022339 0.799634993076324
vt 0.833010971546173 0.769497990608215
vt 0.733887016773224 0.769497990608215
vt 0.653693974018097 0.799634993076324
vt 0.623063027858734 0.848397016525269
vt 0.653693974018097 0.897158980369568
vt 0.733887016773224 0.927295982837677
vt 0.222406998276711 0.943180024623871
vt 0.302599996328354 0.913043022155762
vt 0.3332299888134 0.864280998706818
vt 0.302599996328354 0.815518975257874
vt 0.222406998276711 0.785382986068726
vt 0.123282998800278 0.785382986068726
vt 0.0430900007486343 0.815518975257874
vt 0.0124599998816848 0.864280998706818
vt 0.0430900007486343 0.913043022155762
vt 0.123282998800278 0.943180024623871
vt 0.961335003376007 0.465824007987976
vt 0.991966009140015 0.417062044143677
vt 0.991966009140015 0.417062044143677
vt 0.961335003376007 0.465824007987976
vt 0.881142020225525 0.495959997177124
vt 0.881142020225525 0.495959997177124
vt 0.782018005847931 0.495959997177124
vt 0.782018005847931 0.495959997177124
vt 0.701825976371765 0.465824007987976
vt 0.701825976371765 0.465824007987976
vt 0.671194970607758 0.417062044143677
vt 0.698907971382141 0.417062044143677
vt 0.701825976371765 0.368299961090088
vt 0.701825976371765 0.368299961090088
vt 0.782018005847931 0.338163018226624
vt 0.782018005847931 0.338163018226624
vt 0.881142020225525 0.338163018226624
vt 0.881142020225525 0.338163018226624
vt 0.961335003376007 0.368299961090088
vt 0.961335003376007 0.368299961090088
vt 0.629352986812592 0.465824007987976
vt 0.659983992576599 0.417062044143677
vt 0.659983992576599 0.417062044143677
vt 0.629352986812592 0.465824007987976
vt 0.549160003662109 0.495959997177124
vt 0.549160003662109 0.495959997177124
vt 0.450037002563477 0.495959997177124
vt 0.450037002563477 0.495959997177124
vt 0.369843989610672 0.465824007987976
vt 0.369843989610672 0.465824007987976
vt 0.339213013648987 0.417062044143677
vt 0.339213013648987 0.417062044143677
vt 0.369843989610672 0.368299961090088
vt 0.369843989610672 0.368299961090088
vt 0.450037002563477 0.338163018226624
vt 0.450037002563477 0.338163018226624
vt 0.549160003662109 0.338163018226624
vt 0.549160003662109 0.338163018226624
vt 0.629352986812592 0.368299961090088
vt 0.629352986812592 0.368299961090088
vt 0.323668003082275 0.200605034828186
vt 0.354299008846283 0.151843011379242
vt 0.354299008846283 0.151843011379242
vt 0.323668003082275 0.200605034828186
vt 0.243476003408432 0.23074197769165
vt 0.243476003408432 0.23074197769165
vt 0.144352003931999 0.23074197769165
vt 0.144352003931999 0.23074197769165
vt 0.0641589984297752 0.200605034828186
vt 0.0641589984297752 0.200605034828186
vt 0.0335280001163483 0.151843011379242
vt 0.0335280001163483 0.141766011714935
vt 0.0641589984297752 0.103080987930298
vt 0.0641589984297752 0.103080987930298
vt 0.144352003931999 0.0729449987411499
vt 0.144352003931999 0.0729449987411499
vt 0.243476003408432 0.0729449987411499
vt 0.243476003408432 0.0729449987411499
vt 0.323668003082275 0.103080987930298
vt 0.323668003082275 0.103080987930298
vt 0.629352986812592 0.802412986755371
vt 0.659983992576599 0.753651022911072
vt 0.659983992576599 0.753651022911072
vt 0.629352986812592 0.802412986755371
vt 0.549160003662109 0.83254998922348
vt 0.549160003662109 0.83254998922348
vt 0.450037002563477 0.83254998922348
vt 0.450037002563477 0.83254998922348
vt 0.369843989610672 0.802412986755371
vt 0.369843989610672 0.802412986755371
vt 0.339213013648987 0.753651022911072
vt 0.339213013648987 0.753651022911072
vt 0.369843989610672 0.704888999462128
vt 0.369843989610672 0.704888999462128
vt 0.450037002563477 0.674751996994019
vt 0.450037002563477 0.674751996994019
vt 0.549160003662109 0.674751996994019
vt 0.549160003662109 0.674751996994019
vt 0.629352986812592 0.704888999462128
vt 0.629352986812592 0.704888999462128
vt 0.302599996328354 0.746554970741272
vt 0.3332299888134 0.697793006896973
vt 0.3332299888134 0.697793006896973
vt 0.302599996328354 0.746554970741272
vt 0.222406998276711 0.776691019535065
vt 0.222406998276711 0.776691019535065
vt 0.123282998800278 0.776691019535065
vt 0.123282998800278 0.776691019535065
vt 0.0430900007486343 0.746554970741272
vt 0.0430900007486343 0.746554970741272
vt 0.0124599998816848 0.697793006896973
vt 0.0124599998816848 0.697793006896973
vt 0.0430900007486343 0.649030029773712
vt 0.0430900007486343 0.649030029773712
vt 0.123282998800278 0.618893980979919
vt 0.123282998800278 0.618893980979919
vt 0.222406998276711 0.618893980979919
vt 0.222406998276711 0.618893980979919
vt 0.302599996328354 0.649030983448029
vt 0.302599996328354 0.649030983448029
# 200 Texture-Coordinates

g Mesh1
s 1
f 1/1 2/2 3/3
f 3/3 4/4 5/5
f 5/5 6/6 7/7
f 3/3 5/5 7/7
f 7/7 8/8 9/9
f 3/3 7/7 9/9
f 1/1 3/3 9/9
f 1/1 9/9 10/10
f 11/11 12/12 13/13
f 13/13 14/14 15/15
f 15/15 16/16 17/17
f 13/13 15/15 17/17
f 17/17 18/18 19/19
f 13/13 17/17 19/19
f 11/11 13/13 19/19
f 11/11 19/19 20/20
f 21/21 22/22 23/23
f 23/23 24/24 25/25
f 25/25 26/26 27/27
f 23/23 25/25 27/27
f 27/27 28/28 29/29
f 23/23 27/27 29/29
f 21/21 23/23 29/29
f 21/21 29/29 30/30
f 31/31 32/32 33/33
f 33/33 34/34 35/35
f 35/35 36/36 37/37
f 33/33 35/35 37/37
f 37/37 38/38 39/39
f 33/33 37/37 39/39
f 31/31 33/33 39/39
f 31/31 39/39 40/40
f 41/41 42/42 43/43
f 43/43 44/44 45/45
f 45/45 46/46 47/47
f 43/43 45/45 47/47
f 47/47 48/48 49/49
f 43/43 47/47 49/49
f 41/41 43/43 49/49
f 41/41 49/49 50/50
f 51/51 52/52 53/53
f 53/53 54/54 55/55
f 55/55 56/56 57/57
f 53/53 55/55 57/57
f 57/57 58/58 59/59
f 53/53 57/57 59/59
f 51/51 53/53 59/59
f 51/51 59/59 60/60
f 61/61 62/62 63/63
f 63/63 64/64 65/65
f 65/65 66/66 67/67
f 63/63 65/65 67/67
f 67/67 68/68 69/69
f 63/63 67/67 69/69
f 61/61 63/63 69/69
f 61/61 69/69 70/70
f 71/71 72/72 73/73
f 73/73 74/74 75/75
f 75/75 76/76 77/77
f 73/73 75/75 77/77
f 77/77 78/78 79/79
f 73/73 77/77 79/79
f 71/71 73/73 79/79
f 71/71 79/79 80/80
f 81/81 82/82 83/83
f 83/83 84/84 85/85
f 85/85 86/86 87/87
f 83/83 85/85 87/87
f 87/87 88/88 89/89
f 83/83 87/87 89/89
f 81/81 83/83 89/89
f 81/81 89/89 90/90
f 91/91 92/92 93/93
f 93/93 94/94 95/95
f 95/95 96/96 97/97
f 93/93 95/95 97/97
f 97/97 98/98 99/99
f 93/93 97/97 99/99
f 91/91 93/93 99/99
f 91/91 99/99 100/100
f 101/101 102/102 103/103
f 103/103 104/104 101/101
f 105/105 101/101 104/104
f 104/104 106/106 105/105
f 107/107 105/105 106/106
f 106/106 108/108 107/107
f 109/109 107/107 108/108
f 108/108 110/110 109/109
f 111/111 109/109 110/110
f 110/110 112/112 111/111
f 113/113 111/111 112/112
f 112/112 114/114 113/113
f 115/115 113/113 114/114
f 114/114 116/116 115/115
f 117/117 115/115 116/116
f 116/116 118/118 117/117
f 119/119 117/117 118/118
f 118/118 120/120 119/119
f 102/102 119/119 120/120
f 120/120 103/103 102/102
f 121/121 122/122 123/123
f 123/123 124/124 121/121
f 125/125 121/121 124/124
f 124/124 126/126 125/125
f 127/127 125/125 126/126
f 126/126 128/128 127/127
f 129/129 127/127 128/128
f 128/128 130/130 129/129
f 131/131 129/129 130/130
f 130/130 132/132 131/131
f 133/133 131/131 132/132
f 132/132 134/134 133/133
f 135/135 133/133 134/134
f 134/134 136/136 135/135
f 137/137 135/135 136/136
f 136/136 138/138 137/137
f 139/139 137/137 138/138
f 138/138 140/140 139/139
f 122/122 139/139 140/140
f 140/140 123/123 122/122
f 141/141 142/142 143/143
f 143/143 144/144 141/141
f 145/145 141/141 144/144
f 144/144 146/146 145/145
f 147/147 145/145 146/146
f 146/146 148/148 147/147
f 149/149 147/147 148/148
f 148/148 150/150 149/149
f 151/151 149/149 150/150
f 150/150 152/152 151/151
f 153/153 151/151 152/152
f 152/152 154/154 153/153
f 155/155 153/153 154/154
f 154/154 156/156 155/155
f 157/157 155/155 156/156
f 156/156 158/158 157/157
f 159/159 157/157 158/158
f 158/158 160/160 159/159
f 142/142 159/159 160/160
f 160/160 143/143 142/142
f 161/161 162/162 163/163
f 163/163 164/164 161/161
f 165/165 161/161 164/164
f 164/164 166/166 165/165
f 167/167 165/165 166/166
f 166/166 168/168 167/167
f 169/169 167/167 168/168
f 168/168 170/170 169/169
f 171/171 169/169 170/170
f 170/170 172/172 171/171
f 173/173 171/171 172/172
f 172/172 174/174 173/173
f 175/175 173/173 174/174
f 174/174 176/176 175/175
f 177/177 175/175 176/176
f 176/176 178/178 177/177
f 179/179 177/177 178/178
f 178/178 180/180 179/179
f 162/162 179/179 180/180
f 180/180 163/163 162/162
f 181/181 182/182 183/183
f 183/183 184/184 181/181
f 185/185 181/181 184/184
f 184/184 186/186 185/185
f 187/187 185/185 186/186
f 186/186 188/188 187/187
f 189/189 187/187 188/188
f 188/188 190/190 189/189
f 191/191 189/189 190/190
f 190/190 192/192 191/191
f 193/193 191/191 192/192
f 192/192 194/194 193/193
f 195/195 193/193 194/194
f 194/194 196/196 195/195
f 197/197 195/195 196/196
f 196/196 198/198 197/197
f 199/199 197/197 198/198
f 198/198 200/200 199/199
f 182/182 199/199 200/200
f 200/200 183/183 182/182
